<?xml version="1.0" standalone="no"?><!DOCTYPE svg PUBLIC "-//W3C//DTD SVG 1.1//EN" "http://www.w3.org/Graphics/SVG/1.1/DTD/svg11.dtd"><svg t="1558420901017" class="icon" style="" viewBox="0 0 1024 1024" version="1.1" xmlns="http://www.w3.org/2000/svg" p-id="1981" xmlns:xlink="http://www.w3.org/1999/xlink" width="200" height="200"><defs><style type="text/css"></style></defs><path d="M960 1024h-256a64 64 0 0 1 0-128h101.76l-211.2-210.56a64 64 0 0 1 90.88-90.88l210.56 211.2V704a64 64 0 0 1 128 0v256a64 64 0 0 1-64 64zM320 1024H64a64 64 0 0 1-64-64v-256a64 64 0 0 1 64-64 64 64 0 0 1 64 64v101.12l210.56-210.56a64 64 0 0 1 90.88 90.88L218.24 896H320a64 64 0 0 1 0 128z m320-576a64 64 0 0 1-45.44-18.56 64 64 0 0 1 0-90.88L805.76 128H704a64 64 0 0 1 0-128h256a64 64 0 0 1 64 64v256a64 64 0 0 1-128 0V218.24l-210.56 211.2A64 64 0 0 1 640 448zM384 448a64 64 0 0 1-45.44-18.56L128 218.88V320a64 64 0 0 1-64 64 64 64 0 0 1-64-64V64a64 64 0 0 1 64-64h256a64 64 0 0 1 0 128H218.24l211.2 210.56a64 64 0 0 1 0 90.88A64 64 0 0 1 384 448z" fill="#e6e6e6" p-id="1982"></path></svg>